<svg xmlns="http://www.w3.org/2000/svg" width="100" height="48" viewBox="0 0 100 48">
  <g id="Eye_Logo" data-name="Eye Logo" transform="translate(-120 -32.5)">
    <path id="Path_7906" data-name="Path 7906" d="M116.667,144.779h3.617c2.488,0,3.912-1.432,4.741-3.609l.534-1.558L113.17,106.12h9.606l6.879,20.855h.475l6.519-20.855h9.721l-13.278,37.6c-2.133,6.039-5.69,9.588-12.274,9.588h-4.151Z" transform="translate(40.205 -72.809)" fill="#192440"/>
    <path id="Path_7907" data-name="Path 7907" d="M197.162,124.3h23.064v-2.8c0-9.154-5.4-17.119-15.711-17.119-9.546,0-16.065,7.158-16.065,17.432,0,9.9,6.819,17.059,15.89,17.059.088,0,.17-.009.258-.009v-7.405a7.283,7.283,0,0,1-7.436-7.154m7.349-12.572a6.814,6.814,0,0,1,7.173,6.165H197.337a7.178,7.178,0,0,1,7.173-6.165" transform="translate(-0.392 -71.88)" fill="#192440"/>
    <path id="Path_7908" data-name="Path 7908" d="M246.671,164.493a4.746,4.746,0,1,1-4.745-4.8,4.774,4.774,0,0,1,4.745,4.8" transform="translate(-26.671 -101.397)" fill="#f49719"/>
    <path id="Path_7909" data-name="Path 7909" d="M49.442,124.3H72.506v-2.8c0-9.154-5.4-17.119-15.711-17.119-9.546,0-16.065,7.158-16.065,17.432,0,9.788,6.671,16.886,15.591,17.045v-7.419a7.27,7.27,0,0,1-6.879-7.135M56.8,111.729a6.814,6.814,0,0,1,7.173,6.165H49.622a7.171,7.171,0,0,1,7.173-6.165" transform="translate(79.27 -71.88)" fill="#192440"/>
    <path id="Path_7910" data-name="Path 7910" d="M97.741,164.493A4.746,4.746,0,1,1,93,159.69a4.774,4.774,0,0,1,4.745,4.8" transform="translate(53.644 -101.397)" fill="#f49719"/>
  </g>
</svg>
