<svg width="17" height="17" viewBox="0 0 17 17" fill="none" xmlns="http://www.w3.org/2000/svg">
<circle cx="8.5" cy="8.5" r="8.5" fill="#FAFAFF"/>
<path d="M6.48938 9.52669H13.0758V8.74983C13.0758 6.21091 11.5352 4 8.58864 4C5.86251 4 4 5.98648 4 8.83615C4 11.6858 5.90508 13.5209 8.45277 13.5641V11.5051C7.3215 11.4257 6.56985 10.6247 6.48938 9.52669ZM8.58922 6.0377C9.75781 6.0377 10.5363 6.78004 10.6383 7.74738H6.54011C6.65907 6.84967 7.47136 6.0377 8.58922 6.0377Z" fill="#192240"/>
<path d="M11.6098 13.8204C12.3583 13.8204 12.965 13.2239 12.965 12.4882C12.965 11.7524 12.3583 11.156 11.6098 11.156C10.8614 11.156 10.2546 11.7524 10.2546 12.4882C10.2546 13.2239 10.8614 13.8204 11.6098 13.8204Z" fill="#F4971E"/>
</svg>
